<svg width="32" height="32" viewBox="0 0 32 32" fill="none" xmlns="http://www.w3.org/2000/svg">
<g clip-path="url(#clip0_13_23)">
<path d="M15.8734 0C7.10583 0 0 7.10583 0 15.8734C0 24.641 7.10583 31.7468 15.8734 31.7468C24.641 31.7468 31.7468 24.641 31.7468 15.8734C31.7468 7.10583 24.641 0 15.8734 0ZM25.7819 25.7757C24.4922 27.0654 22.9979 28.0761 21.3299 28.7768C19.6062 29.5084 17.7708 29.8743 15.8734 29.8743C13.9822 29.8743 12.1469 29.5022 10.4169 28.7768C8.74898 28.0699 7.24845 27.0592 5.96493 25.7757C4.67522 24.486 3.66453 22.9917 2.96387 21.3237C2.2322 19.6 1.86017 17.7646 1.86017 15.8734C1.86017 13.9822 2.2322 12.1469 2.95766 10.4169C3.66453 8.74898 4.67522 7.24845 5.95873 5.96493C7.25465 4.67522 8.74898 3.66453 10.4169 2.95766C12.1469 2.2322 13.9822 1.86017 15.8734 1.86017C17.7646 1.86017 19.6 2.2322 21.3299 2.95766C22.9979 3.66453 24.4984 4.67522 25.7819 5.95873C27.0716 7.24845 28.0823 8.74278 28.783 10.4107C29.5146 12.1345 29.8805 13.9698 29.8805 15.8672C29.8805 17.7584 29.5084 19.5938 28.783 21.3237C28.0761 22.9917 27.0654 24.4922 25.7819 25.7757Z" fill="#3D3D3D"/>
<path d="M17.9692 10.4602C18.6079 10.4602 19.29 10.6587 19.29 10.6587L19.6992 8.22805C19.6992 8.22805 18.8311 7.93042 16.7601 7.93042C15.489 7.93042 14.7511 8.41406 14.2117 9.12713C13.7033 9.80299 13.6847 10.8881 13.6847 11.5887V13.1823H12.0415V15.5571H13.6847V23.8038H16.7601V15.5571H19.1969L19.3768 13.1823H16.7601V11.3283C16.7601 10.6897 17.3306 10.4602 17.9692 10.4602Z" fill="#3D3D3D"/>
</g>
<defs>
<clipPath id="clip0_13_23">
<rect width="31.7468" height="31.7468" fill="white"/>
</clipPath>
</defs>
</svg>
