<svg width="32" height="32" viewBox="0 0 32 32" fill="none" xmlns="http://www.w3.org/2000/svg">
<g clip-path="url(#clip0_222_67)">
<path d="M15.9999 0C7.2323 0 0.126465 7.10584 0.126465 15.8734C0.126465 24.641 7.2323 31.7468 15.9999 31.7468C24.7675 31.7468 31.8733 24.641 31.8733 15.8734C31.8733 7.10584 24.7675 0 15.9999 0ZM25.9084 25.7757C24.6187 27.0654 23.1243 28.0761 21.4564 28.7768C19.7326 29.5084 17.8973 29.8743 15.9999 29.8743C14.1087 29.8743 12.2733 29.5022 10.5434 28.7768C8.87545 28.0699 7.37491 27.0592 6.0914 25.7757C4.80168 24.486 3.79099 22.9917 3.09033 21.3237C2.35866 19.6 1.98663 17.7646 1.98663 15.8734C1.98663 13.9822 2.35866 12.1469 3.08413 10.4169C3.79099 8.74898 4.80168 7.24845 6.0852 5.96493C7.38111 4.67522 8.87545 3.66453 10.5434 2.95766C12.2733 2.2322 14.1087 1.86017 15.9999 1.86017C17.8911 1.86017 19.7264 2.2322 21.4564 2.95766C23.1243 3.66453 24.6249 4.67522 25.9084 5.95873C27.1981 7.24845 28.2088 8.74278 28.9094 10.4107C29.6411 12.1345 30.0069 13.9698 30.0069 15.8672C30.0069 17.7584 29.6349 19.5937 28.9094 21.3237C28.2026 22.9917 27.1919 24.4922 25.9084 25.7757Z" fill="#A3A3A3"/>
<path d="M20.8735 7.93671H11.1386C9.44586 7.93671 8.06934 9.31323 8.06934 11.006V14.2489V20.7471C8.06934 22.4398 9.44586 23.8163 11.1386 23.8163H20.8735C22.5662 23.8163 23.9428 22.4398 23.9428 20.7471V14.2427V10.9998C23.9366 9.31323 22.56 7.93671 20.8735 7.93671ZM21.754 9.76587H22.1074V10.1131V12.4569L19.4225 12.4631L19.4163 9.77207L21.754 9.76587ZM13.7366 14.2427C14.2451 13.542 15.0698 13.077 15.9998 13.077C16.9299 13.077 17.7546 13.5358 18.263 14.2427C18.5979 14.7015 18.7901 15.2658 18.7901 15.8734C18.7901 17.4112 17.5376 18.6699 15.9936 18.6699C14.4497 18.6699 13.2096 17.4112 13.2096 15.8734C13.2096 15.2658 13.408 14.7015 13.7366 14.2427ZM22.3926 20.7409C22.3926 21.5779 21.7106 22.26 20.8735 22.26H11.1386C10.3015 22.26 9.61947 21.5779 9.61947 20.7409V14.2427H11.9881C11.7835 14.7449 11.6657 15.2968 11.6657 15.8734C11.6657 18.2668 13.6126 20.2138 16.006 20.2138C18.3995 20.2138 20.3464 18.2668 20.3464 15.8734C20.3464 15.2968 20.2286 14.7449 20.024 14.2427H22.3926V20.7409Z" fill="#A3A3A3"/>
</g>
<defs>
<clipPath id="clip0_222_67">
<rect width="31.7468" height="31.7468" fill="white" transform="translate(0.126465)"/>
</clipPath>
</defs>
</svg>
