<svg width="32" height="32" viewBox="0 0 32 32" fill="none" xmlns="http://www.w3.org/2000/svg">
<g clip-path="url(#clip0_13_27)">
<path d="M16 0C7.23242 0 0.126587 7.10583 0.126587 15.8734C0.126587 24.641 7.23242 31.7468 16 31.7468C24.7676 31.7468 31.8734 24.641 31.8734 15.8734C31.8734 7.10583 24.7676 0 16 0ZM25.9085 25.7757C24.6188 27.0654 23.1244 28.0761 21.4565 28.7768C19.7327 29.5084 17.8974 29.8743 16 29.8743C14.1088 29.8743 12.2735 29.5022 10.5435 28.7768C8.87557 28.0699 7.37503 27.0592 6.09152 25.7757C4.8018 24.486 3.79111 22.9917 3.09045 21.3237C2.35879 19.6 1.98675 17.7646 1.98675 15.8734C1.98675 13.9822 2.35879 12.1469 3.08425 10.4169C3.79111 8.74898 4.8018 7.24845 6.08532 5.96493C7.38123 4.67522 8.87557 3.66453 10.5435 2.95766C12.2735 2.2322 14.1088 1.86017 16 1.86017C17.8912 1.86017 19.7265 2.2322 21.4565 2.95766C23.1244 3.66453 24.625 4.67522 25.9085 5.95873C27.1982 7.24845 28.2089 8.74278 28.9096 10.4107C29.6412 12.1345 30.0071 13.9698 30.0071 15.8672C30.0071 17.7584 29.635 19.5938 28.9096 21.3237C28.2027 22.9917 27.192 24.4922 25.9085 25.7757Z" fill="#3D3D3D"/>
<path d="M20.8736 7.93677H11.1387C9.44598 7.93677 8.06946 9.31329 8.06946 11.006V14.2489V20.7471C8.06946 22.4399 9.44598 23.8164 11.1387 23.8164H20.8736C22.5664 23.8164 23.9429 22.4399 23.9429 20.7471V14.2427V10.9998C23.9367 9.31329 22.5602 7.93677 20.8736 7.93677ZM21.7541 9.76593H22.1075V10.1132V12.457L19.4227 12.4632L19.4165 9.77213L21.7541 9.76593ZM13.7368 14.2427C14.2452 13.5421 15.0699 13.077 16 13.077C16.93 13.077 17.7547 13.5359 18.2632 14.2427C18.598 14.7016 18.7902 15.2658 18.7902 15.8735C18.7902 17.4112 17.5377 18.6699 15.9938 18.6699C14.4498 18.6699 13.2097 17.4112 13.2097 15.8735C13.2097 15.2658 13.4081 14.7016 13.7368 14.2427ZM22.3927 20.7409C22.3927 21.578 21.7107 22.26 20.8736 22.26H11.1387C10.3017 22.26 9.6196 21.578 9.6196 20.7409V14.2427H11.9882C11.7836 14.745 11.6658 15.2968 11.6658 15.8735C11.6658 18.2669 13.6128 20.2139 16.0062 20.2139C18.3996 20.2139 20.3466 18.2669 20.3466 15.8735C20.3466 15.2968 20.2287 14.745 20.0241 14.2427H22.3927V20.7409Z" fill="#3D3D3D"/>
</g>
<defs>
<clipPath id="clip0_13_27">
<rect width="31.7468" height="31.7468" fill="white" transform="translate(0.126587)"/>
</clipPath>
</defs>
</svg>
